<svg width="48" height="14" viewBox="0 0 48 14" fill="none" xmlns="http://www.w3.org/2000/svg">
<path d="M0.340246 1.4C0.340246 0.8 0.18013 0.34 0 0H8.12587V2.14C7.78563 1.96 7.32529 1.8 6.74487 1.8H2.28165V5.08H8.12587V6.88H2.28165V12.2H6.72486C7.32529 12.2 7.78563 12.04 8.12587 11.86V14H0.340246V1.4Z" fill="#252525"/>
<path d="M16.1285 14H13.8469V1.8H11.8855C11.305 1.8 10.8447 1.96 10.5045 2.14V0H19.1307V2.14C18.7905 1.96 18.3301 1.8 17.7497 1.8H15.7883V12.6C15.7883 13.2 15.9484 13.66 16.1285 14Z" fill="#252525"/>
<path d="M22.1498 1.4C22.1498 0.8 21.9896 0.34 21.8095 0H29.9354V2.14C29.5951 1.96 29.1348 1.8 28.5544 1.8H24.0912V5.08H29.9354V6.88H24.0912V12.2H28.5344C29.1348 12.2 29.5951 12.04 29.9354 11.86V14H22.1498V1.4Z" fill="#252525"/>
<path d="M42.2322 3.54C42.2322 5.66 40.6711 6.86 38.5896 7.02L41.872 12.6C42.1322 13.04 42.6525 13.72 43.0328 14H40.4509L36.388 7.04H35.3673V12.6C35.3673 13.2 35.5274 13.66 35.7075 14H33.4259V1.4C33.4259 0.8 33.2658 0.34 33.0856 0H38.1293C40.4309 0 42.2322 1.26 42.2322 3.54ZM38.1493 1.72H35.3673V5.32H38.1493C39.3502 5.32 40.2308 4.72 40.2308 3.52C40.2308 2.32 39.3502 1.72 38.1493 1.72Z" fill="#252525"/>
<path d="M47.6598 0V12.6C47.6598 13.2 47.8199 13.66 48 14H45.7183V1.4C45.7183 0.8 45.5582 0.34 45.3781 0H47.6598Z" fill="#252525"/>
</svg>
